<?xml version="1.0" encoding="utf-8" standalone="no"?>
<!DOCTYPE svg PUBLIC "-//W3C//DTD SVG 1.1//EN"
  "http://www.w3.org/Graphics/SVG/1.1/DTD/svg11.dtd">
<svg xmlns:xlink="http://www.w3.org/1999/xlink" width="468pt" height="288pt" viewBox="0 0 468 288" xmlns="http://www.w3.org/2000/svg" version="1.1">
 <metadata>
  <rdf:RDF xmlns:dc="http://purl.org/dc/elements/1.1/" xmlns:cc="http://creativecommons.org/ns#" xmlns:rdf="http://www.w3.org/1999/02/22-rdf-syntax-ns#">
   <cc:Work>
    <dc:type rdf:resource="http://purl.org/dc/dcmitype/StillImage"/>
    <dc:date>2026-05-18T17:09:47.721142</dc:date>
    <dc:format>image/svg+xml</dc:format>
    <dc:creator>
     <cc:Agent>
      <dc:title>Matplotlib v3.8.0, https://matplotlib.org/</dc:title>
     </cc:Agent>
    </dc:creator>
   </cc:Work>
  </rdf:RDF>
 </metadata>
 <defs>
  <style type="text/css">*{stroke-linejoin: round; stroke-linecap: butt}</style>
 </defs>
 <g id="figure_1">
  <g id="patch_1">
   <path d="M 0 288 
L 468 288 
L 468 0 
L 0 0 
z
" style="fill: #ffffff"/>
  </g>
  <g id="axes_1">
   <g id="patch_2">
    <path d="M 88.503139 154.086297 
L 457.2 154.086297 
L 457.2 10.8 
L 88.503139 10.8 
z
" style="fill: #ffffff"/>
   </g>
   <g id="patch_3">
    <path d="M 105.262087 154.086297 
L 127.986085 154.086297 
L 127.986085 154.070779 
L 105.262087 154.070779 
z
" clip-path="url(#pd27557959b)" style="fill: #1f77b4"/>
   </g>
   <g id="patch_4">
    <path d="M 133.667084 154.086297 
L 156.391082 154.086297 
L 156.391082 154.068288 
L 133.667084 154.068288 
z
" clip-path="url(#pd27557959b)" style="fill: #1f77b4"/>
   </g>
   <g id="patch_5">
    <path d="M 162.072081 154.086297 
L 184.796079 154.086297 
L 184.796079 153.987479 
L 162.072081 153.987479 
z
" clip-path="url(#pd27557959b)" style="fill: #1f77b4"/>
   </g>
   <g id="patch_6">
    <path d="M 190.477078 154.086297 
L 213.201076 154.086297 
L 213.201076 154.067706 
L 190.477078 154.067706 
z
" clip-path="url(#pd27557959b)" style="fill: #1f77b4"/>
   </g>
   <g id="patch_7">
    <path d="M 218.882075 154.086297 
L 241.606073 154.086297 
L 241.606073 154.066978 
L 218.882075 154.066978 
z
" clip-path="url(#pd27557959b)" style="fill: #1f77b4"/>
   </g>
   <g id="patch_8">
    <path d="M 247.287072 154.086297 
L 270.01107 154.086297 
L 270.01107 154.067139 
L 247.287072 154.067139 
z
" clip-path="url(#pd27557959b)" style="fill: #1f77b4"/>
   </g>
   <g id="patch_9">
    <path d="M 275.692069 154.086297 
L 298.416067 154.086297 
L 298.416067 154.086279 
L 275.692069 154.086279 
z
" clip-path="url(#pd27557959b)" style="fill: #1f77b4"/>
   </g>
   <g id="patch_10">
    <path d="M 304.097066 154.086297 
L 326.821064 154.086297 
L 326.821064 154.067277 
L 304.097066 154.067277 
z
" clip-path="url(#pd27557959b)" style="fill: #1f77b4"/>
   </g>
   <g id="patch_11">
    <path d="M 332.502063 154.086297 
L 355.226061 154.086297 
L 355.226061 154.067345 
L 332.502063 154.067345 
z
" clip-path="url(#pd27557959b)" style="fill: #1f77b4"/>
   </g>
   <g id="patch_12">
    <path d="M 360.90706 154.086297 
L 383.631058 154.086297 
L 383.631058 154.07009 
L 360.90706 154.07009 
z
" clip-path="url(#pd27557959b)" style="fill: #1f77b4"/>
   </g>
   <g id="patch_13">
    <path d="M 389.312057 154.086297 
L 412.036055 154.086297 
L 412.036055 154.066115 
L 389.312057 154.066115 
z
" clip-path="url(#pd27557959b)" style="fill: #1f77b4"/>
   </g>
   <g id="patch_14">
    <path d="M 417.717054 154.086297 
L 440.441052 154.086297 
L 440.441052 17.623157 
L 417.717054 17.623157 
z
" clip-path="url(#pd27557959b)" style="fill: #1f77b4"/>
   </g>
   <g id="matplotlib.axis_1">
    <g id="xtick_1">
     <g id="line2d_1">
      <defs>
       <path id="ma589518611" d="M 0 0 
L 0 3.5 
" style="stroke: #000000; stroke-width: 0.8"/>
      </defs>
      <g>
       <use xlink:href="#ma589518611" x="116.624086" y="154.086297" style="stroke: #000000; stroke-width: 0.8"/>
      </g>
     </g>
     <g id="text_1">
      <!-- rename_identifier_begin -->
      <g transform="translate(15.955915 236.852235) rotate(-35) scale(0.1 -0.1)">
       <defs>
        <path id="DejaVuSans-72" d="M 2631 2963 
Q 2534 3019 2420 3045 
Q 2306 3072 2169 3072 
Q 1681 3072 1420 2755 
Q 1159 2438 1159 1844 
L 1159 0 
L 581 0 
L 581 3500 
L 1159 3500 
L 1159 2956 
Q 1341 3275 1631 3429 
Q 1922 3584 2338 3584 
Q 2397 3584 2469 3576 
Q 2541 3569 2628 3553 
L 2631 2963 
z
" transform="scale(0.015625)"/>
        <path id="DejaVuSans-65" d="M 3597 1894 
L 3597 1613 
L 953 1613 
Q 991 1019 1311 708 
Q 1631 397 2203 397 
Q 2534 397 2845 478 
Q 3156 559 3463 722 
L 3463 178 
Q 3153 47 2828 -22 
Q 2503 -91 2169 -91 
Q 1331 -91 842 396 
Q 353 884 353 1716 
Q 353 2575 817 3079 
Q 1281 3584 2069 3584 
Q 2775 3584 3186 3129 
Q 3597 2675 3597 1894 
z
M 3022 2063 
Q 3016 2534 2758 2815 
Q 2500 3097 2075 3097 
Q 1594 3097 1305 2825 
Q 1016 2553 972 2059 
L 3022 2063 
z
" transform="scale(0.015625)"/>
        <path id="DejaVuSans-6e" d="M 3513 2113 
L 3513 0 
L 2938 0 
L 2938 2094 
Q 2938 2591 2744 2837 
Q 2550 3084 2163 3084 
Q 1697 3084 1428 2787 
Q 1159 2491 1159 1978 
L 1159 0 
L 581 0 
L 581 3500 
L 1159 3500 
L 1159 2956 
Q 1366 3272 1645 3428 
Q 1925 3584 2291 3584 
Q 2894 3584 3203 3211 
Q 3513 2838 3513 2113 
z
" transform="scale(0.015625)"/>
        <path id="DejaVuSans-61" d="M 2194 1759 
Q 1497 1759 1228 1600 
Q 959 1441 959 1056 
Q 959 750 1161 570 
Q 1363 391 1709 391 
Q 2188 391 2477 730 
Q 2766 1069 2766 1631 
L 2766 1759 
L 2194 1759 
z
M 3341 1997 
L 3341 0 
L 2766 0 
L 2766 531 
Q 2569 213 2275 61 
Q 1981 -91 1556 -91 
Q 1019 -91 701 211 
Q 384 513 384 1019 
Q 384 1609 779 1909 
Q 1175 2209 1959 2209 
L 2766 2209 
L 2766 2266 
Q 2766 2663 2505 2880 
Q 2244 3097 1772 3097 
Q 1472 3097 1187 3025 
Q 903 2953 641 2809 
L 641 3341 
Q 956 3463 1253 3523 
Q 1550 3584 1831 3584 
Q 2591 3584 2966 3190 
Q 3341 2797 3341 1997 
z
" transform="scale(0.015625)"/>
        <path id="DejaVuSans-6d" d="M 3328 2828 
Q 3544 3216 3844 3400 
Q 4144 3584 4550 3584 
Q 5097 3584 5394 3201 
Q 5691 2819 5691 2113 
L 5691 0 
L 5113 0 
L 5113 2094 
Q 5113 2597 4934 2840 
Q 4756 3084 4391 3084 
Q 3944 3084 3684 2787 
Q 3425 2491 3425 1978 
L 3425 0 
L 2847 0 
L 2847 2094 
Q 2847 2600 2669 2842 
Q 2491 3084 2119 3084 
Q 1678 3084 1418 2786 
Q 1159 2488 1159 1978 
L 1159 0 
L 581 0 
L 581 3500 
L 1159 3500 
L 1159 2956 
Q 1356 3278 1631 3431 
Q 1906 3584 2284 3584 
Q 2666 3584 2933 3390 
Q 3200 3197 3328 2828 
z
" transform="scale(0.015625)"/>
        <path id="DejaVuSans-5f" d="M 3263 -1063 
L 3263 -1509 
L -63 -1509 
L -63 -1063 
L 3263 -1063 
z
" transform="scale(0.015625)"/>
        <path id="DejaVuSans-69" d="M 603 3500 
L 1178 3500 
L 1178 0 
L 603 0 
L 603 3500 
z
M 603 4863 
L 1178 4863 
L 1178 4134 
L 603 4134 
L 603 4863 
z
" transform="scale(0.015625)"/>
        <path id="DejaVuSans-64" d="M 2906 2969 
L 2906 4863 
L 3481 4863 
L 3481 0 
L 2906 0 
L 2906 525 
Q 2725 213 2448 61 
Q 2172 -91 1784 -91 
Q 1150 -91 751 415 
Q 353 922 353 1747 
Q 353 2572 751 3078 
Q 1150 3584 1784 3584 
Q 2172 3584 2448 3432 
Q 2725 3281 2906 2969 
z
M 947 1747 
Q 947 1113 1208 752 
Q 1469 391 1925 391 
Q 2381 391 2643 752 
Q 2906 1113 2906 1747 
Q 2906 2381 2643 2742 
Q 2381 3103 1925 3103 
Q 1469 3103 1208 2742 
Q 947 2381 947 1747 
z
" transform="scale(0.015625)"/>
        <path id="DejaVuSans-74" d="M 1172 4494 
L 1172 3500 
L 2356 3500 
L 2356 3053 
L 1172 3053 
L 1172 1153 
Q 1172 725 1289 603 
Q 1406 481 1766 481 
L 2356 481 
L 2356 0 
L 1766 0 
Q 1100 0 847 248 
Q 594 497 594 1153 
L 594 3053 
L 172 3053 
L 172 3500 
L 594 3500 
L 594 4494 
L 1172 4494 
z
" transform="scale(0.015625)"/>
        <path id="DejaVuSans-66" d="M 2375 4863 
L 2375 4384 
L 1825 4384 
Q 1516 4384 1395 4259 
Q 1275 4134 1275 3809 
L 1275 3500 
L 2222 3500 
L 2222 3053 
L 1275 3053 
L 1275 0 
L 697 0 
L 697 3053 
L 147 3053 
L 147 3500 
L 697 3500 
L 697 3744 
Q 697 4328 969 4595 
Q 1241 4863 1831 4863 
L 2375 4863 
z
" transform="scale(0.015625)"/>
        <path id="DejaVuSans-62" d="M 3116 1747 
Q 3116 2381 2855 2742 
Q 2594 3103 2138 3103 
Q 1681 3103 1420 2742 
Q 1159 2381 1159 1747 
Q 1159 1113 1420 752 
Q 1681 391 2138 391 
Q 2594 391 2855 752 
Q 3116 1113 3116 1747 
z
M 1159 2969 
Q 1341 3281 1617 3432 
Q 1894 3584 2278 3584 
Q 2916 3584 3314 3078 
Q 3713 2572 3713 1747 
Q 3713 922 3314 415 
Q 2916 -91 2278 -91 
Q 1894 -91 1617 61 
Q 1341 213 1159 525 
L 1159 0 
L 581 0 
L 581 4863 
L 1159 4863 
L 1159 2969 
z
" transform="scale(0.015625)"/>
        <path id="DejaVuSans-67" d="M 2906 1791 
Q 2906 2416 2648 2759 
Q 2391 3103 1925 3103 
Q 1463 3103 1205 2759 
Q 947 2416 947 1791 
Q 947 1169 1205 825 
Q 1463 481 1925 481 
Q 2391 481 2648 825 
Q 2906 1169 2906 1791 
z
M 3481 434 
Q 3481 -459 3084 -895 
Q 2688 -1331 1869 -1331 
Q 1566 -1331 1297 -1286 
Q 1028 -1241 775 -1147 
L 775 -588 
Q 1028 -725 1275 -790 
Q 1522 -856 1778 -856 
Q 2344 -856 2625 -561 
Q 2906 -266 2906 331 
L 2906 616 
Q 2728 306 2450 153 
Q 2172 0 1784 0 
Q 1141 0 747 490 
Q 353 981 353 1791 
Q 353 2603 747 3093 
Q 1141 3584 1784 3584 
Q 2172 3584 2450 3431 
Q 2728 3278 2906 2969 
L 2906 3500 
L 3481 3500 
L 3481 434 
z
" transform="scale(0.015625)"/>
       </defs>
       <use xlink:href="#DejaVuSans-72"/>
       <use xlink:href="#DejaVuSans-65" x="38.863281"/>
       <use xlink:href="#DejaVuSans-6e" x="100.386719"/>
       <use xlink:href="#DejaVuSans-61" x="163.765625"/>
       <use xlink:href="#DejaVuSans-6d" x="225.044922"/>
       <use xlink:href="#DejaVuSans-65" x="322.457031"/>
       <use xlink:href="#DejaVuSans-5f" x="383.980469"/>
       <use xlink:href="#DejaVuSans-69" x="433.980469"/>
       <use xlink:href="#DejaVuSans-64" x="461.763672"/>
       <use xlink:href="#DejaVuSans-65" x="525.240234"/>
       <use xlink:href="#DejaVuSans-6e" x="586.763672"/>
       <use xlink:href="#DejaVuSans-74" x="650.142578"/>
       <use xlink:href="#DejaVuSans-69" x="689.351562"/>
       <use xlink:href="#DejaVuSans-66" x="717.134766"/>
       <use xlink:href="#DejaVuSans-69" x="752.339844"/>
       <use xlink:href="#DejaVuSans-65" x="780.123047"/>
       <use xlink:href="#DejaVuSans-72" x="841.646484"/>
       <use xlink:href="#DejaVuSans-5f" x="882.759766"/>
       <use xlink:href="#DejaVuSans-62" x="932.759766"/>
       <use xlink:href="#DejaVuSans-65" x="996.236328"/>
       <use xlink:href="#DejaVuSans-67" x="1057.759766"/>
       <use xlink:href="#DejaVuSans-69" x="1121.236328"/>
       <use xlink:href="#DejaVuSans-6e" x="1149.019531"/>
      </g>
     </g>
    </g>
    <g id="xtick_2">
     <g id="line2d_2">
      <g>
       <use xlink:href="#ma589518611" x="145.029083" y="154.086297" style="stroke: #000000; stroke-width: 0.8"/>
      </g>
     </g>
     <g id="text_2">
      <!-- rename_identifier_middle -->
      <g transform="translate(39.297528 240.397654) rotate(-35) scale(0.1 -0.1)">
       <defs>
        <path id="DejaVuSans-6c" d="M 603 4863 
L 1178 4863 
L 1178 0 
L 603 0 
L 603 4863 
z
" transform="scale(0.015625)"/>
       </defs>
       <use xlink:href="#DejaVuSans-72"/>
       <use xlink:href="#DejaVuSans-65" x="38.863281"/>
       <use xlink:href="#DejaVuSans-6e" x="100.386719"/>
       <use xlink:href="#DejaVuSans-61" x="163.765625"/>
       <use xlink:href="#DejaVuSans-6d" x="225.044922"/>
       <use xlink:href="#DejaVuSans-65" x="322.457031"/>
       <use xlink:href="#DejaVuSans-5f" x="383.980469"/>
       <use xlink:href="#DejaVuSans-69" x="433.980469"/>
       <use xlink:href="#DejaVuSans-64" x="461.763672"/>
       <use xlink:href="#DejaVuSans-65" x="525.240234"/>
       <use xlink:href="#DejaVuSans-6e" x="586.763672"/>
       <use xlink:href="#DejaVuSans-74" x="650.142578"/>
       <use xlink:href="#DejaVuSans-69" x="689.351562"/>
       <use xlink:href="#DejaVuSans-66" x="717.134766"/>
       <use xlink:href="#DejaVuSans-69" x="752.339844"/>
       <use xlink:href="#DejaVuSans-65" x="780.123047"/>
       <use xlink:href="#DejaVuSans-72" x="841.646484"/>
       <use xlink:href="#DejaVuSans-5f" x="882.759766"/>
       <use xlink:href="#DejaVuSans-6d" x="932.759766"/>
       <use xlink:href="#DejaVuSans-69" x="1030.171875"/>
       <use xlink:href="#DejaVuSans-64" x="1057.955078"/>
       <use xlink:href="#DejaVuSans-64" x="1121.431641"/>
       <use xlink:href="#DejaVuSans-6c" x="1184.908203"/>
       <use xlink:href="#DejaVuSans-65" x="1212.691406"/>
      </g>
     </g>
    </g>
    <g id="xtick_3">
     <g id="line2d_3">
      <g>
       <use xlink:href="#ma589518611" x="173.43408" y="154.086297" style="stroke: #000000; stroke-width: 0.8"/>
      </g>
     </g>
     <g id="text_3">
      <!-- rename_identifier_end -->
      <g transform="translate(80.241951 231.617454) rotate(-35) scale(0.1 -0.1)">
       <use xlink:href="#DejaVuSans-72"/>
       <use xlink:href="#DejaVuSans-65" x="38.863281"/>
       <use xlink:href="#DejaVuSans-6e" x="100.386719"/>
       <use xlink:href="#DejaVuSans-61" x="163.765625"/>
       <use xlink:href="#DejaVuSans-6d" x="225.044922"/>
       <use xlink:href="#DejaVuSans-65" x="322.457031"/>
       <use xlink:href="#DejaVuSans-5f" x="383.980469"/>
       <use xlink:href="#DejaVuSans-69" x="433.980469"/>
       <use xlink:href="#DejaVuSans-64" x="461.763672"/>
       <use xlink:href="#DejaVuSans-65" x="525.240234"/>
       <use xlink:href="#DejaVuSans-6e" x="586.763672"/>
       <use xlink:href="#DejaVuSans-74" x="650.142578"/>
       <use xlink:href="#DejaVuSans-69" x="689.351562"/>
       <use xlink:href="#DejaVuSans-66" x="717.134766"/>
       <use xlink:href="#DejaVuSans-69" x="752.339844"/>
       <use xlink:href="#DejaVuSans-65" x="780.123047"/>
       <use xlink:href="#DejaVuSans-72" x="841.646484"/>
       <use xlink:href="#DejaVuSans-5f" x="882.759766"/>
       <use xlink:href="#DejaVuSans-65" x="932.759766"/>
       <use xlink:href="#DejaVuSans-6e" x="994.283203"/>
       <use xlink:href="#DejaVuSans-64" x="1057.662109"/>
      </g>
     </g>
    </g>
    <g id="xtick_4">
     <g id="line2d_4">
      <g>
       <use xlink:href="#ma589518611" x="201.839077" y="154.086297" style="stroke: #000000; stroke-width: 0.8"/>
      </g>
     </g>
     <g id="text_4">
      <!-- insert_whitespace -->
      <g transform="translate(126.587658 219.055233) rotate(-35) scale(0.1 -0.1)">
       <defs>
        <path id="DejaVuSans-73" d="M 2834 3397 
L 2834 2853 
Q 2591 2978 2328 3040 
Q 2066 3103 1784 3103 
Q 1356 3103 1142 2972 
Q 928 2841 928 2578 
Q 928 2378 1081 2264 
Q 1234 2150 1697 2047 
L 1894 2003 
Q 2506 1872 2764 1633 
Q 3022 1394 3022 966 
Q 3022 478 2636 193 
Q 2250 -91 1575 -91 
Q 1294 -91 989 -36 
Q 684 19 347 128 
L 347 722 
Q 666 556 975 473 
Q 1284 391 1588 391 
Q 1994 391 2212 530 
Q 2431 669 2431 922 
Q 2431 1156 2273 1281 
Q 2116 1406 1581 1522 
L 1381 1569 
Q 847 1681 609 1914 
Q 372 2147 372 2553 
Q 372 3047 722 3315 
Q 1072 3584 1716 3584 
Q 2034 3584 2315 3537 
Q 2597 3491 2834 3397 
z
" transform="scale(0.015625)"/>
        <path id="DejaVuSans-77" d="M 269 3500 
L 844 3500 
L 1563 769 
L 2278 3500 
L 2956 3500 
L 3675 769 
L 4391 3500 
L 4966 3500 
L 4050 0 
L 3372 0 
L 2619 2869 
L 1863 0 
L 1184 0 
L 269 3500 
z
" transform="scale(0.015625)"/>
        <path id="DejaVuSans-68" d="M 3513 2113 
L 3513 0 
L 2938 0 
L 2938 2094 
Q 2938 2591 2744 2837 
Q 2550 3084 2163 3084 
Q 1697 3084 1428 2787 
Q 1159 2491 1159 1978 
L 1159 0 
L 581 0 
L 581 4863 
L 1159 4863 
L 1159 2956 
Q 1366 3272 1645 3428 
Q 1925 3584 2291 3584 
Q 2894 3584 3203 3211 
Q 3513 2838 3513 2113 
z
" transform="scale(0.015625)"/>
        <path id="DejaVuSans-70" d="M 1159 525 
L 1159 -1331 
L 581 -1331 
L 581 3500 
L 1159 3500 
L 1159 2969 
Q 1341 3281 1617 3432 
Q 1894 3584 2278 3584 
Q 2916 3584 3314 3078 
Q 3713 2572 3713 1747 
Q 3713 922 3314 415 
Q 2916 -91 2278 -91 
Q 1894 -91 1617 61 
Q 1341 213 1159 525 
z
M 3116 1747 
Q 3116 2381 2855 2742 
Q 2594 3103 2138 3103 
Q 1681 3103 1420 2742 
Q 1159 2381 1159 1747 
Q 1159 1113 1420 752 
Q 1681 391 2138 391 
Q 2594 391 2855 752 
Q 3116 1113 3116 1747 
z
" transform="scale(0.015625)"/>
        <path id="DejaVuSans-63" d="M 3122 3366 
L 3122 2828 
Q 2878 2963 2633 3030 
Q 2388 3097 2138 3097 
Q 1578 3097 1268 2742 
Q 959 2388 959 1747 
Q 959 1106 1268 751 
Q 1578 397 2138 397 
Q 2388 397 2633 464 
Q 2878 531 3122 666 
L 3122 134 
Q 2881 22 2623 -34 
Q 2366 -91 2075 -91 
Q 1284 -91 818 406 
Q 353 903 353 1747 
Q 353 2603 823 3093 
Q 1294 3584 2113 3584 
Q 2378 3584 2631 3529 
Q 2884 3475 3122 3366 
z
" transform="scale(0.015625)"/>
       </defs>
       <use xlink:href="#DejaVuSans-69"/>
       <use xlink:href="#DejaVuSans-6e" x="27.783203"/>
       <use xlink:href="#DejaVuSans-73" x="91.162109"/>
       <use xlink:href="#DejaVuSans-65" x="143.261719"/>
       <use xlink:href="#DejaVuSans-72" x="204.785156"/>
       <use xlink:href="#DejaVuSans-74" x="245.898438"/>
       <use xlink:href="#DejaVuSans-5f" x="285.107422"/>
       <use xlink:href="#DejaVuSans-77" x="335.107422"/>
       <use xlink:href="#DejaVuSans-68" x="416.894531"/>
       <use xlink:href="#DejaVuSans-69" x="480.273438"/>
       <use xlink:href="#DejaVuSans-74" x="508.056641"/>
       <use xlink:href="#DejaVuSans-65" x="547.265625"/>
       <use xlink:href="#DejaVuSans-73" x="608.789062"/>
       <use xlink:href="#DejaVuSans-70" x="660.888672"/>
       <use xlink:href="#DejaVuSans-61" x="724.365234"/>
       <use xlink:href="#DejaVuSans-63" x="785.644531"/>
       <use xlink:href="#DejaVuSans-65" x="840.625"/>
      </g>
     </g>
    </g>
    <g id="xtick_5">
     <g id="line2d_5">
      <g>
       <use xlink:href="#ma589518611" x="230.244074" y="154.086297" style="stroke: #000000; stroke-width: 0.8"/>
      </g>
     </g>
     <g id="text_5">
      <!-- delete_whitespace -->
      <g transform="translate(152.537758 220.77417) rotate(-35) scale(0.1 -0.1)">
       <use xlink:href="#DejaVuSans-64"/>
       <use xlink:href="#DejaVuSans-65" x="63.476562"/>
       <use xlink:href="#DejaVuSans-6c" x="125"/>
       <use xlink:href="#DejaVuSans-65" x="152.783203"/>
       <use xlink:href="#DejaVuSans-74" x="214.306641"/>
       <use xlink:href="#DejaVuSans-65" x="253.515625"/>
       <use xlink:href="#DejaVuSans-5f" x="315.039062"/>
       <use xlink:href="#DejaVuSans-77" x="365.039062"/>
       <use xlink:href="#DejaVuSans-68" x="446.826172"/>
       <use xlink:href="#DejaVuSans-69" x="510.205078"/>
       <use xlink:href="#DejaVuSans-74" x="537.988281"/>
       <use xlink:href="#DejaVuSans-65" x="577.197266"/>
       <use xlink:href="#DejaVuSans-73" x="638.720703"/>
       <use xlink:href="#DejaVuSans-70" x="690.820312"/>
       <use xlink:href="#DejaVuSans-61" x="754.296875"/>
       <use xlink:href="#DejaVuSans-63" x="815.576172"/>
       <use xlink:href="#DejaVuSans-65" x="870.556641"/>
      </g>
     </g>
    </g>
    <g id="xtick_6">
     <g id="line2d_6">
      <g>
       <use xlink:href="#ma589518611" x="258.649071" y="154.086297" style="stroke: #000000; stroke-width: 0.8"/>
      </g>
     </g>
     <g id="text_6">
      <!-- insert_line_comment -->
      <g transform="translate(172.051116 227.000163) rotate(-35) scale(0.1 -0.1)">
       <defs>
        <path id="DejaVuSans-6f" d="M 1959 3097 
Q 1497 3097 1228 2736 
Q 959 2375 959 1747 
Q 959 1119 1226 758 
Q 1494 397 1959 397 
Q 2419 397 2687 759 
Q 2956 1122 2956 1747 
Q 2956 2369 2687 2733 
Q 2419 3097 1959 3097 
z
M 1959 3584 
Q 2709 3584 3137 3096 
Q 3566 2609 3566 1747 
Q 3566 888 3137 398 
Q 2709 -91 1959 -91 
Q 1206 -91 779 398 
Q 353 888 353 1747 
Q 353 2609 779 3096 
Q 1206 3584 1959 3584 
z
" transform="scale(0.015625)"/>
       </defs>
       <use xlink:href="#DejaVuSans-69"/>
       <use xlink:href="#DejaVuSans-6e" x="27.783203"/>
       <use xlink:href="#DejaVuSans-73" x="91.162109"/>
       <use xlink:href="#DejaVuSans-65" x="143.261719"/>
       <use xlink:href="#DejaVuSans-72" x="204.785156"/>
       <use xlink:href="#DejaVuSans-74" x="245.898438"/>
       <use xlink:href="#DejaVuSans-5f" x="285.107422"/>
       <use xlink:href="#DejaVuSans-6c" x="335.107422"/>
       <use xlink:href="#DejaVuSans-69" x="362.890625"/>
       <use xlink:href="#DejaVuSans-6e" x="390.673828"/>
       <use xlink:href="#DejaVuSans-65" x="454.052734"/>
       <use xlink:href="#DejaVuSans-5f" x="515.576172"/>
       <use xlink:href="#DejaVuSans-63" x="565.576172"/>
       <use xlink:href="#DejaVuSans-6f" x="620.556641"/>
       <use xlink:href="#DejaVuSans-6d" x="681.738281"/>
       <use xlink:href="#DejaVuSans-6d" x="779.150391"/>
       <use xlink:href="#DejaVuSans-65" x="876.5625"/>
       <use xlink:href="#DejaVuSans-6e" x="938.085938"/>
       <use xlink:href="#DejaVuSans-74" x="1001.464844"/>
      </g>
     </g>
    </g>
    <g id="xtick_7">
     <g id="line2d_7">
      <g>
       <use xlink:href="#ma589518611" x="287.054068" y="154.086297" style="stroke: #000000; stroke-width: 0.8"/>
      </g>
     </g>
     <g id="text_7">
      <!-- insert_block_comment_begin -->
      <g transform="translate(166.499701 250.776699) rotate(-35) scale(0.1 -0.1)">
       <defs>
        <path id="DejaVuSans-6b" d="M 581 4863 
L 1159 4863 
L 1159 1991 
L 2875 3500 
L 3609 3500 
L 1753 1863 
L 3688 0 
L 2938 0 
L 1159 1709 
L 1159 0 
L 581 0 
L 581 4863 
z
" transform="scale(0.015625)"/>
       </defs>
       <use xlink:href="#DejaVuSans-69"/>
       <use xlink:href="#DejaVuSans-6e" x="27.783203"/>
       <use xlink:href="#DejaVuSans-73" x="91.162109"/>
       <use xlink:href="#DejaVuSans-65" x="143.261719"/>
       <use xlink:href="#DejaVuSans-72" x="204.785156"/>
       <use xlink:href="#DejaVuSans-74" x="245.898438"/>
       <use xlink:href="#DejaVuSans-5f" x="285.107422"/>
       <use xlink:href="#DejaVuSans-62" x="335.107422"/>
       <use xlink:href="#DejaVuSans-6c" x="398.583984"/>
       <use xlink:href="#DejaVuSans-6f" x="426.367188"/>
       <use xlink:href="#DejaVuSans-63" x="487.548828"/>
       <use xlink:href="#DejaVuSans-6b" x="542.529297"/>
       <use xlink:href="#DejaVuSans-5f" x="600.439453"/>
       <use xlink:href="#DejaVuSans-63" x="650.439453"/>
       <use xlink:href="#DejaVuSans-6f" x="705.419922"/>
       <use xlink:href="#DejaVuSans-6d" x="766.601562"/>
       <use xlink:href="#DejaVuSans-6d" x="864.013672"/>
       <use xlink:href="#DejaVuSans-65" x="961.425781"/>
       <use xlink:href="#DejaVuSans-6e" x="1022.949219"/>
       <use xlink:href="#DejaVuSans-74" x="1086.328125"/>
       <use xlink:href="#DejaVuSans-5f" x="1125.537109"/>
       <use xlink:href="#DejaVuSans-62" x="1175.537109"/>
       <use xlink:href="#DejaVuSans-65" x="1239.013672"/>
       <use xlink:href="#DejaVuSans-67" x="1300.537109"/>
       <use xlink:href="#DejaVuSans-69" x="1364.013672"/>
       <use xlink:href="#DejaVuSans-6e" x="1391.796875"/>
      </g>
     </g>
    </g>
    <g id="xtick_8">
     <g id="line2d_8">
      <g>
       <use xlink:href="#ma589518611" x="315.459065" y="154.086297" style="stroke: #000000; stroke-width: 0.8"/>
      </g>
     </g>
     <g id="text_8">
      <!-- insert_block_comment_end -->
      <g transform="translate(202.38074 245.541918) rotate(-35) scale(0.1 -0.1)">
       <use xlink:href="#DejaVuSans-69"/>
       <use xlink:href="#DejaVuSans-6e" x="27.783203"/>
       <use xlink:href="#DejaVuSans-73" x="91.162109"/>
       <use xlink:href="#DejaVuSans-65" x="143.261719"/>
       <use xlink:href="#DejaVuSans-72" x="204.785156"/>
       <use xlink:href="#DejaVuSans-74" x="245.898438"/>
       <use xlink:href="#DejaVuSans-5f" x="285.107422"/>
       <use xlink:href="#DejaVuSans-62" x="335.107422"/>
       <use xlink:href="#DejaVuSans-6c" x="398.583984"/>
       <use xlink:href="#DejaVuSans-6f" x="426.367188"/>
       <use xlink:href="#DejaVuSans-63" x="487.548828"/>
       <use xlink:href="#DejaVuSans-6b" x="542.529297"/>
       <use xlink:href="#DejaVuSans-5f" x="600.439453"/>
       <use xlink:href="#DejaVuSans-63" x="650.439453"/>
       <use xlink:href="#DejaVuSans-6f" x="705.419922"/>
       <use xlink:href="#DejaVuSans-6d" x="766.601562"/>
       <use xlink:href="#DejaVuSans-6d" x="864.013672"/>
       <use xlink:href="#DejaVuSans-65" x="961.425781"/>
       <use xlink:href="#DejaVuSans-6e" x="1022.949219"/>
       <use xlink:href="#DejaVuSans-74" x="1086.328125"/>
       <use xlink:href="#DejaVuSans-5f" x="1125.537109"/>
       <use xlink:href="#DejaVuSans-65" x="1175.537109"/>
       <use xlink:href="#DejaVuSans-6e" x="1237.060547"/>
       <use xlink:href="#DejaVuSans-64" x="1300.439453"/>
      </g>
     </g>
    </g>
    <g id="xtick_9">
     <g id="line2d_9">
      <g>
       <use xlink:href="#ma589518611" x="343.864062" y="154.086297" style="stroke: #000000; stroke-width: 0.8"/>
      </g>
     </g>
     <g id="text_9">
      <!-- delete_block_comment_end -->
      <g transform="translate(228.330841 247.260855) rotate(-35) scale(0.1 -0.1)">
       <use xlink:href="#DejaVuSans-64"/>
       <use xlink:href="#DejaVuSans-65" x="63.476562"/>
       <use xlink:href="#DejaVuSans-6c" x="125"/>
       <use xlink:href="#DejaVuSans-65" x="152.783203"/>
       <use xlink:href="#DejaVuSans-74" x="214.306641"/>
       <use xlink:href="#DejaVuSans-65" x="253.515625"/>
       <use xlink:href="#DejaVuSans-5f" x="315.039062"/>
       <use xlink:href="#DejaVuSans-62" x="365.039062"/>
       <use xlink:href="#DejaVuSans-6c" x="428.515625"/>
       <use xlink:href="#DejaVuSans-6f" x="456.298828"/>
       <use xlink:href="#DejaVuSans-63" x="517.480469"/>
       <use xlink:href="#DejaVuSans-6b" x="572.460938"/>
       <use xlink:href="#DejaVuSans-5f" x="630.371094"/>
       <use xlink:href="#DejaVuSans-63" x="680.371094"/>
       <use xlink:href="#DejaVuSans-6f" x="735.351562"/>
       <use xlink:href="#DejaVuSans-6d" x="796.533203"/>
       <use xlink:href="#DejaVuSans-6d" x="893.945312"/>
       <use xlink:href="#DejaVuSans-65" x="991.357422"/>
       <use xlink:href="#DejaVuSans-6e" x="1052.880859"/>
       <use xlink:href="#DejaVuSans-74" x="1116.259766"/>
       <use xlink:href="#DejaVuSans-5f" x="1155.46875"/>
       <use xlink:href="#DejaVuSans-65" x="1205.46875"/>
       <use xlink:href="#DejaVuSans-6e" x="1266.992188"/>
       <use xlink:href="#DejaVuSans-64" x="1330.371094"/>
      </g>
     </g>
    </g>
    <g id="xtick_10">
     <g id="line2d_10">
      <g>
       <use xlink:href="#ma589518611" x="372.269059" y="154.086297" style="stroke: #000000; stroke-width: 0.8"/>
      </g>
     </g>
     <g id="text_10">
      <!-- replace_operator_equal_to_eqeq -->
      <g transform="translate(237.606078 260.655657) rotate(-35) scale(0.1 -0.1)">
       <defs>
        <path id="DejaVuSans-71" d="M 947 1747 
Q 947 1113 1208 752 
Q 1469 391 1925 391 
Q 2381 391 2643 752 
Q 2906 1113 2906 1747 
Q 2906 2381 2643 2742 
Q 2381 3103 1925 3103 
Q 1469 3103 1208 2742 
Q 947 2381 947 1747 
z
M 2906 525 
Q 2725 213 2448 61 
Q 2172 -91 1784 -91 
Q 1150 -91 751 415 
Q 353 922 353 1747 
Q 353 2572 751 3078 
Q 1150 3584 1784 3584 
Q 2172 3584 2448 3432 
Q 2725 3281 2906 2969 
L 2906 3500 
L 3481 3500 
L 3481 -1331 
L 2906 -1331 
L 2906 525 
z
" transform="scale(0.015625)"/>
        <path id="DejaVuSans-75" d="M 544 1381 
L 544 3500 
L 1119 3500 
L 1119 1403 
Q 1119 906 1312 657 
Q 1506 409 1894 409 
Q 2359 409 2629 706 
Q 2900 1003 2900 1516 
L 2900 3500 
L 3475 3500 
L 3475 0 
L 2900 0 
L 2900 538 
Q 2691 219 2414 64 
Q 2138 -91 1772 -91 
Q 1169 -91 856 284 
Q 544 659 544 1381 
z
M 1991 3584 
L 1991 3584 
z
" transform="scale(0.015625)"/>
       </defs>
       <use xlink:href="#DejaVuSans-72"/>
       <use xlink:href="#DejaVuSans-65" x="38.863281"/>
       <use xlink:href="#DejaVuSans-70" x="100.386719"/>
       <use xlink:href="#DejaVuSans-6c" x="163.863281"/>
       <use xlink:href="#DejaVuSans-61" x="191.646484"/>
       <use xlink:href="#DejaVuSans-63" x="252.925781"/>
       <use xlink:href="#DejaVuSans-65" x="307.90625"/>
       <use xlink:href="#DejaVuSans-5f" x="369.429688"/>
       <use xlink:href="#DejaVuSans-6f" x="419.429688"/>
       <use xlink:href="#DejaVuSans-70" x="480.611328"/>
       <use xlink:href="#DejaVuSans-65" x="544.087891"/>
       <use xlink:href="#DejaVuSans-72" x="605.611328"/>
       <use xlink:href="#DejaVuSans-61" x="646.724609"/>
       <use xlink:href="#DejaVuSans-74" x="708.003906"/>
       <use xlink:href="#DejaVuSans-6f" x="747.212891"/>
       <use xlink:href="#DejaVuSans-72" x="808.394531"/>
       <use xlink:href="#DejaVuSans-5f" x="849.507812"/>
       <use xlink:href="#DejaVuSans-65" x="899.507812"/>
       <use xlink:href="#DejaVuSans-71" x="961.03125"/>
       <use xlink:href="#DejaVuSans-75" x="1024.507812"/>
       <use xlink:href="#DejaVuSans-61" x="1087.886719"/>
       <use xlink:href="#DejaVuSans-6c" x="1149.166016"/>
       <use xlink:href="#DejaVuSans-5f" x="1176.949219"/>
       <use xlink:href="#DejaVuSans-74" x="1226.949219"/>
       <use xlink:href="#DejaVuSans-6f" x="1266.158203"/>
       <use xlink:href="#DejaVuSans-5f" x="1327.339844"/>
       <use xlink:href="#DejaVuSans-65" x="1377.339844"/>
       <use xlink:href="#DejaVuSans-71" x="1438.863281"/>
       <use xlink:href="#DejaVuSans-65" x="1502.339844"/>
       <use xlink:href="#DejaVuSans-71" x="1563.863281"/>
      </g>
     </g>
    </g>
    <g id="xtick_11">
     <g id="line2d_11">
      <g>
       <use xlink:href="#ma589518611" x="400.674056" y="154.086297" style="stroke: #000000; stroke-width: 0.8"/>
      </g>
     </g>
     <g id="text_11">
      <!-- malformed_number_edit -->
      <g transform="translate(298.818114 237.683921) rotate(-35) scale(0.1 -0.1)">
       <use xlink:href="#DejaVuSans-6d"/>
       <use xlink:href="#DejaVuSans-61" x="97.412109"/>
       <use xlink:href="#DejaVuSans-6c" x="158.691406"/>
       <use xlink:href="#DejaVuSans-66" x="186.474609"/>
       <use xlink:href="#DejaVuSans-6f" x="221.679688"/>
       <use xlink:href="#DejaVuSans-72" x="282.861328"/>
       <use xlink:href="#DejaVuSans-6d" x="322.224609"/>
       <use xlink:href="#DejaVuSans-65" x="419.636719"/>
       <use xlink:href="#DejaVuSans-64" x="481.160156"/>
       <use xlink:href="#DejaVuSans-5f" x="544.636719"/>
       <use xlink:href="#DejaVuSans-6e" x="594.636719"/>
       <use xlink:href="#DejaVuSans-75" x="658.015625"/>
       <use xlink:href="#DejaVuSans-6d" x="721.394531"/>
       <use xlink:href="#DejaVuSans-62" x="818.806641"/>
       <use xlink:href="#DejaVuSans-65" x="882.283203"/>
       <use xlink:href="#DejaVuSans-72" x="943.806641"/>
       <use xlink:href="#DejaVuSans-5f" x="984.919922"/>
       <use xlink:href="#DejaVuSans-65" x="1034.919922"/>
       <use xlink:href="#DejaVuSans-64" x="1096.443359"/>
       <use xlink:href="#DejaVuSans-69" x="1159.919922"/>
       <use xlink:href="#DejaVuSans-74" x="1187.703125"/>
      </g>
     </g>
    </g>
    <g id="xtick_12">
     <g id="line2d_12">
      <g>
       <use xlink:href="#ma589518611" x="429.079053" y="154.086297" style="stroke: #000000; stroke-width: 0.8"/>
      </g>
     </g>
     <g id="text_12">
      <!-- edit_near_file_end -->
      <g transform="translate(353.185111 219.505132) rotate(-35) scale(0.1 -0.1)">
       <use xlink:href="#DejaVuSans-65"/>
       <use xlink:href="#DejaVuSans-64" x="61.523438"/>
       <use xlink:href="#DejaVuSans-69" x="125"/>
       <use xlink:href="#DejaVuSans-74" x="152.783203"/>
       <use xlink:href="#DejaVuSans-5f" x="191.992188"/>
       <use xlink:href="#DejaVuSans-6e" x="241.992188"/>
       <use xlink:href="#DejaVuSans-65" x="305.371094"/>
       <use xlink:href="#DejaVuSans-61" x="366.894531"/>
       <use xlink:href="#DejaVuSans-72" x="428.173828"/>
       <use xlink:href="#DejaVuSans-5f" x="469.287109"/>
       <use xlink:href="#DejaVuSans-66" x="519.287109"/>
       <use xlink:href="#DejaVuSans-69" x="554.492188"/>
       <use xlink:href="#DejaVuSans-6c" x="582.275391"/>
       <use xlink:href="#DejaVuSans-65" x="610.058594"/>
       <use xlink:href="#DejaVuSans-5f" x="671.582031"/>
       <use xlink:href="#DejaVuSans-65" x="721.582031"/>
       <use xlink:href="#DejaVuSans-6e" x="783.105469"/>
       <use xlink:href="#DejaVuSans-64" x="846.484375"/>
      </g>
     </g>
    </g>
    <g id="text_13">
     <!-- Edit case -->
     <g transform="translate(250.085163 274.185501) scale(0.1 -0.1)">
      <defs>
       <path id="DejaVuSans-45" d="M 628 4666 
L 3578 4666 
L 3578 4134 
L 1259 4134 
L 1259 2753 
L 3481 2753 
L 3481 2222 
L 1259 2222 
L 1259 531 
L 3634 531 
L 3634 0 
L 628 0 
L 628 4666 
z
" transform="scale(0.015625)"/>
       <path id="DejaVuSans-20" transform="scale(0.015625)"/>
      </defs>
      <use xlink:href="#DejaVuSans-45"/>
      <use xlink:href="#DejaVuSans-64" x="63.183594"/>
      <use xlink:href="#DejaVuSans-69" x="126.660156"/>
      <use xlink:href="#DejaVuSans-74" x="154.443359"/>
      <use xlink:href="#DejaVuSans-20" x="193.652344"/>
      <use xlink:href="#DejaVuSans-63" x="225.439453"/>
      <use xlink:href="#DejaVuSans-61" x="280.419922"/>
      <use xlink:href="#DejaVuSans-73" x="341.699219"/>
      <use xlink:href="#DejaVuSans-65" x="393.798828"/>
     </g>
    </g>
   </g>
   <g id="matplotlib.axis_2">
    <g id="ytick_1">
     <g id="line2d_13">
      <defs>
       <path id="m48d01686d6" d="M 0 0 
L -3.5 0 
" style="stroke: #000000; stroke-width: 0.8"/>
      </defs>
      <g>
       <use xlink:href="#m48d01686d6" x="88.503139" y="154.086297" style="stroke: #000000; stroke-width: 0.8"/>
      </g>
     </g>
     <g id="text_14">
      <!-- 0 -->
      <g transform="translate(75.140639 157.885516) scale(0.1 -0.1)">
       <defs>
        <path id="DejaVuSans-30" d="M 2034 4250 
Q 1547 4250 1301 3770 
Q 1056 3291 1056 2328 
Q 1056 1369 1301 889 
Q 1547 409 2034 409 
Q 2525 409 2770 889 
Q 3016 1369 3016 2328 
Q 3016 3291 2770 3770 
Q 2525 4250 2034 4250 
z
M 2034 4750 
Q 2819 4750 3233 4129 
Q 3647 3509 3647 2328 
Q 3647 1150 3233 529 
Q 2819 -91 2034 -91 
Q 1250 -91 836 529 
Q 422 1150 422 2328 
Q 422 3509 836 4129 
Q 1250 4750 2034 4750 
z
" transform="scale(0.015625)"/>
       </defs>
       <use xlink:href="#DejaVuSans-30"/>
      </g>
     </g>
    </g>
    <g id="ytick_2">
     <g id="line2d_14">
      <g>
       <use xlink:href="#m48d01686d6" x="88.503139" y="116.404911" style="stroke: #000000; stroke-width: 0.8"/>
      </g>
     </g>
     <g id="text_15">
      <!-- 2000 -->
      <g transform="translate(56.053139 120.20413) scale(0.1 -0.1)">
       <defs>
        <path id="DejaVuSans-32" d="M 1228 531 
L 3431 531 
L 3431 0 
L 469 0 
L 469 531 
Q 828 903 1448 1529 
Q 2069 2156 2228 2338 
Q 2531 2678 2651 2914 
Q 2772 3150 2772 3378 
Q 2772 3750 2511 3984 
Q 2250 4219 1831 4219 
Q 1534 4219 1204 4116 
Q 875 4013 500 3803 
L 500 4441 
Q 881 4594 1212 4672 
Q 1544 4750 1819 4750 
Q 2544 4750 2975 4387 
Q 3406 4025 3406 3419 
Q 3406 3131 3298 2873 
Q 3191 2616 2906 2266 
Q 2828 2175 2409 1742 
Q 1991 1309 1228 531 
z
" transform="scale(0.015625)"/>
       </defs>
       <use xlink:href="#DejaVuSans-32"/>
       <use xlink:href="#DejaVuSans-30" x="63.623047"/>
       <use xlink:href="#DejaVuSans-30" x="127.246094"/>
       <use xlink:href="#DejaVuSans-30" x="190.869141"/>
      </g>
     </g>
    </g>
    <g id="ytick_3">
     <g id="line2d_15">
      <g>
       <use xlink:href="#m48d01686d6" x="88.503139" y="78.723525" style="stroke: #000000; stroke-width: 0.8"/>
      </g>
     </g>
     <g id="text_16">
      <!-- 4000 -->
      <g transform="translate(56.053139 82.522744) scale(0.1 -0.1)">
       <defs>
        <path id="DejaVuSans-34" d="M 2419 4116 
L 825 1625 
L 2419 1625 
L 2419 4116 
z
M 2253 4666 
L 3047 4666 
L 3047 1625 
L 3713 1625 
L 3713 1100 
L 3047 1100 
L 3047 0 
L 2419 0 
L 2419 1100 
L 313 1100 
L 313 1709 
L 2253 4666 
z
" transform="scale(0.015625)"/>
       </defs>
       <use xlink:href="#DejaVuSans-34"/>
       <use xlink:href="#DejaVuSans-30" x="63.623047"/>
       <use xlink:href="#DejaVuSans-30" x="127.246094"/>
       <use xlink:href="#DejaVuSans-30" x="190.869141"/>
      </g>
     </g>
    </g>
    <g id="ytick_4">
     <g id="line2d_16">
      <g>
       <use xlink:href="#m48d01686d6" x="88.503139" y="41.042139" style="stroke: #000000; stroke-width: 0.8"/>
      </g>
     </g>
     <g id="text_17">
      <!-- 6000 -->
      <g transform="translate(56.053139 44.841357) scale(0.1 -0.1)">
       <defs>
        <path id="DejaVuSans-36" d="M 2113 2584 
Q 1688 2584 1439 2293 
Q 1191 2003 1191 1497 
Q 1191 994 1439 701 
Q 1688 409 2113 409 
Q 2538 409 2786 701 
Q 3034 994 3034 1497 
Q 3034 2003 2786 2293 
Q 2538 2584 2113 2584 
z
M 3366 4563 
L 3366 3988 
Q 3128 4100 2886 4159 
Q 2644 4219 2406 4219 
Q 1781 4219 1451 3797 
Q 1122 3375 1075 2522 
Q 1259 2794 1537 2939 
Q 1816 3084 2150 3084 
Q 2853 3084 3261 2657 
Q 3669 2231 3669 1497 
Q 3669 778 3244 343 
Q 2819 -91 2113 -91 
Q 1303 -91 875 529 
Q 447 1150 447 2328 
Q 447 3434 972 4092 
Q 1497 4750 2381 4750 
Q 2619 4750 2861 4703 
Q 3103 4656 3366 4563 
z
" transform="scale(0.015625)"/>
       </defs>
       <use xlink:href="#DejaVuSans-36"/>
       <use xlink:href="#DejaVuSans-30" x="63.623047"/>
       <use xlink:href="#DejaVuSans-30" x="127.246094"/>
       <use xlink:href="#DejaVuSans-30" x="190.869141"/>
      </g>
     </g>
    </g>
    <g id="text_18">
     <!-- Speedup over full lexing -->
     <g transform="translate(49.973452 143.15643) rotate(-90) scale(0.1 -0.1)">
      <defs>
       <path id="DejaVuSans-53" d="M 3425 4513 
L 3425 3897 
Q 3066 4069 2747 4153 
Q 2428 4238 2131 4238 
Q 1616 4238 1336 4038 
Q 1056 3838 1056 3469 
Q 1056 3159 1242 3001 
Q 1428 2844 1947 2747 
L 2328 2669 
Q 3034 2534 3370 2195 
Q 3706 1856 3706 1288 
Q 3706 609 3251 259 
Q 2797 -91 1919 -91 
Q 1588 -91 1214 -16 
Q 841 59 441 206 
L 441 856 
Q 825 641 1194 531 
Q 1563 422 1919 422 
Q 2459 422 2753 634 
Q 3047 847 3047 1241 
Q 3047 1584 2836 1778 
Q 2625 1972 2144 2069 
L 1759 2144 
Q 1053 2284 737 2584 
Q 422 2884 422 3419 
Q 422 4038 858 4394 
Q 1294 4750 2059 4750 
Q 2388 4750 2728 4690 
Q 3069 4631 3425 4513 
z
" transform="scale(0.015625)"/>
       <path id="DejaVuSans-76" d="M 191 3500 
L 800 3500 
L 1894 563 
L 2988 3500 
L 3597 3500 
L 2284 0 
L 1503 0 
L 191 3500 
z
" transform="scale(0.015625)"/>
       <path id="DejaVuSans-78" d="M 3513 3500 
L 2247 1797 
L 3578 0 
L 2900 0 
L 1881 1375 
L 863 0 
L 184 0 
L 1544 1831 
L 300 3500 
L 978 3500 
L 1906 2253 
L 2834 3500 
L 3513 3500 
z
" transform="scale(0.015625)"/>
      </defs>
      <use xlink:href="#DejaVuSans-53"/>
      <use xlink:href="#DejaVuSans-70" x="63.476562"/>
      <use xlink:href="#DejaVuSans-65" x="126.953125"/>
      <use xlink:href="#DejaVuSans-65" x="188.476562"/>
      <use xlink:href="#DejaVuSans-64" x="250"/>
      <use xlink:href="#DejaVuSans-75" x="313.476562"/>
      <use xlink:href="#DejaVuSans-70" x="376.855469"/>
      <use xlink:href="#DejaVuSans-20" x="440.332031"/>
      <use xlink:href="#DejaVuSans-6f" x="472.119141"/>
      <use xlink:href="#DejaVuSans-76" x="533.300781"/>
      <use xlink:href="#DejaVuSans-65" x="592.480469"/>
      <use xlink:href="#DejaVuSans-72" x="654.003906"/>
      <use xlink:href="#DejaVuSans-20" x="695.117188"/>
      <use xlink:href="#DejaVuSans-66" x="726.904297"/>
      <use xlink:href="#DejaVuSans-75" x="762.109375"/>
      <use xlink:href="#DejaVuSans-6c" x="825.488281"/>
      <use xlink:href="#DejaVuSans-6c" x="853.271484"/>
      <use xlink:href="#DejaVuSans-20" x="881.054688"/>
      <use xlink:href="#DejaVuSans-6c" x="912.841797"/>
      <use xlink:href="#DejaVuSans-65" x="940.625"/>
      <use xlink:href="#DejaVuSans-78" x="1000.398438"/>
      <use xlink:href="#DejaVuSans-69" x="1059.578125"/>
      <use xlink:href="#DejaVuSans-6e" x="1087.361328"/>
      <use xlink:href="#DejaVuSans-67" x="1150.740234"/>
     </g>
    </g>
   </g>
   <g id="patch_15">
    <path d="M 88.503139 154.086297 
L 88.503139 10.8 
" style="fill: none; stroke: #000000; stroke-width: 0.8; stroke-linejoin: miter; stroke-linecap: square"/>
   </g>
   <g id="patch_16">
    <path d="M 88.503139 154.086297 
L 457.2 154.086297 
" style="fill: none; stroke: #000000; stroke-width: 0.8; stroke-linejoin: miter; stroke-linecap: square"/>
   </g>
  </g>
 </g>
 <defs>
  <clipPath id="pd27557959b">
   <rect x="88.503139" y="10.8" width="368.696861" height="143.286297"/>
  </clipPath>
 </defs>
</svg>
